<svg xmlns="http://www.w3.org/2000/svg" xmlns:xlink="http://www.w3.org/1999/xlink" width="1200" height="630" viewBox="0 0 1200 630">
  <defs>
    <clipPath id="clip-path">
      <rect id="Rectangle_970" data-name="Rectangle 970" width="1200" height="630" transform="translate(10741 -14527)" fill="#fff" stroke="#707070" stroke-width="1"/>
    </clipPath>
  </defs>
  <g id="Mask_Group_91" data-name="Mask Group 91" transform="translate(-10741 14527)" clip-path="url(#clip-path)">
    <g id="Blue_n_Yellow" data-name="Blue n Yellow" transform="translate(10741 -14358.684)">
      <path id="Path_47606" data-name="Path 47606" d="M483.1,259.387l-7.288,51.684h-5.05l.864-6.112c-5.508,4.737-11.453,7.122-17.773,7.122a16.357,16.357,0,0,1-12.91-5.841q-5.123-5.841-5.112-14.837a31.235,31.235,0,0,1,10.1-23.26q10.151-9.766,26.6-9.777A49.539,49.539,0,0,1,483.1,259.387Zm-10.651,39.648,5.091-36.16a26.2,26.2,0,0,0-6.33-.666,29.445,29.445,0,0,0-21.146,8.5,28.476,28.476,0,0,0-8.86,21.375c0,4.81,1.239,8.631,3.675,11.5a12.286,12.286,0,0,0,9.756,4.269c5.81,0,11.807-2.915,17.825-8.819Z" transform="translate(-19.199 -18.741)" fill="#deaf2e"/>
      <path id="Path_47607" data-name="Path 47607" d="M530.934,259.387l-.781,5.549a38.056,38.056,0,0,0-9.777-1.52q-11.317,0-18.064,7.715a27.445,27.445,0,0,0-6.716,18.533q0,7.965,4.769,12.838t12.64,4.841q5.466,0,14.743-4.165l-.791,5.372a34.358,34.358,0,0,1-15.211,3.55q-9.62,0-15.618-6.341c-3.956-4.238-5.955-9.777-5.955-16.659A30.944,30.944,0,0,1,498.5,267.57c5.56-6.143,13-9.214,22.271-9.214a52.275,52.275,0,0,1,10.162,1.031Z" transform="translate(-19.199 -18.741)" fill="#deaf2e"/>
      <path id="Path_47608" data-name="Path 47608" d="M575.215,259.387l-.791,5.549a37.857,37.857,0,0,0-9.777-1.51q-11.317,0-18.033,7.715a27.32,27.32,0,0,0-6.747,18.533c0,5.31,1.6,9.589,4.769,12.838s7.392,4.841,12.64,4.841q5.451,0,14.743-4.165l-.791,5.372a34.358,34.358,0,0,1-15.243,3.519q-9.6,0-15.555-6.341c-3.956-4.238-5.955-9.777-5.955-16.659a31.017,31.017,0,0,1,8.329-21.531q8.329-9.214,22.3-9.214A52.253,52.253,0,0,1,575.215,259.387Z" transform="translate(-19.199 -18.741)" fill="#deaf2e"/>
      <path id="Path_47609" data-name="Path 47609" d="M619.256,300.95v5.414a26.5,26.5,0,0,1-16.232,5.716q-10.276,0-16.565-6.788t-6.247-18.043q0-12.182,6.955-20.521t16.961-8.329a16.711,16.711,0,0,1,13.4,5.872c3.311,3.936,4.987,9.246,4.987,15.992,0,1.156-.083,2.468-.229,3.925H585.845a29.874,29.874,0,0,0-.229,3.321,21.365,21.365,0,0,0,4.727,13.952,15.618,15.618,0,0,0,12.765,5.893C608.564,307.353,613.946,305.24,619.256,300.95Zm-32.62-21.282h30.777c.229-5.206-.885-9.225-3.373-12.161a12.494,12.494,0,0,0-10.058-4.415c-3.9,0-7.559,1.562-11.016,4.717A19.939,19.939,0,0,0,586.637,279.669Z" transform="translate(-19.199 -18.741)" fill="#deaf2e"/>
      <path id="Path_47610" data-name="Path 47610" d="M646.8,232.587,635.78,311.07h-5.112l11.089-78.483Z" transform="translate(-19.199 -18.741)" fill="#deaf2e"/>
      <path id="Path_47611" data-name="Path 47611" d="M691.18,300.95v5.414a26.529,26.529,0,0,1-16.242,5.716c-6.841,0-12.38-2.27-16.565-6.788s-6.247-10.557-6.247-18.043c0-8.121,2.3-14.972,6.955-20.521s10.287-8.329,16.961-8.329a16.742,16.742,0,0,1,13.369,5.872c3.342,3.936,5.008,9.246,5.008,15.992,0,1.156-.083,2.468-.219,3.925H657.759a32.646,32.646,0,0,0-.229,3.321,21.416,21.416,0,0,0,4.81,13.983,15.617,15.617,0,0,0,12.775,5.893C680.477,307.353,685.86,305.24,691.18,300.95ZM658.54,279.669h30.777c.229-5.206-.875-9.225-3.353-12.161a12.494,12.494,0,0,0-10.068-4.415c-3.894,0-7.559,1.562-11.016,4.717a20.011,20.011,0,0,0-6.341,11.859Z" transform="translate(-19.199 -18.741)" fill="#deaf2e"/>
      <path id="Path_47612" data-name="Path 47612" d="M715.054,259.387l-1.989,14.191.239.177q6.008-8.694,9.818-12.036a12.286,12.286,0,0,1,8.329-3.353,13.161,13.161,0,0,1,5.1,1.041v5.05a12.348,12.348,0,0,0-5.341-1.406q-5.341,0-12.13,8.121t-6.924,9.152l-4.321,30.746h-5.1l7.288-51.684Z" transform="translate(-19.199 -18.741)" fill="#deaf2e"/>
      <path id="Path_47613" data-name="Path 47613" d="M779.138,259.387,771.85,311.07h-5.07l.864-6.112q-8.257,7.111-17.7,7.122a16.419,16.419,0,0,1-12.931-5.841c-3.415-3.894-5.1-8.84-5.1-14.837q0-13.473,10.12-23.26t26.581-9.777a49.3,49.3,0,0,1,10.526,1.02ZM768.5,299.034l5.091-36.16a26.529,26.529,0,0,0-6.361-.666,29.382,29.382,0,0,0-21.136,8.5,28.413,28.413,0,0,0-8.871,21.375c0,4.81,1.229,8.631,3.7,11.5a12.223,12.223,0,0,0,9.725,4.269c5.862,0,11.786-2.915,17.856-8.819Z" transform="translate(-19.199 -18.741)" fill="#deaf2e"/>
      <path id="Path_47614" data-name="Path 47614" d="M816.423,259.387l-.562,3.821H802.148l-4.717,24.832a105.793,105.793,0,0,0-1.426,11.068,9.079,9.079,0,0,0,2.384,6.736,7.756,7.756,0,0,0,5.831,2.405c3.123,0,6.393-1.468,9.9-4.477v4.716a19.47,19.47,0,0,1-10.734,3.592,12.026,12.026,0,0,1-9.2-3.831,13.317,13.317,0,0,1-3.55-9.5,58.363,58.363,0,0,1,1.531-11.5l4.914-24.041H786.8l.614-3.821h10.2l2.332-11.807h5.039l-2.426,11.807Z" transform="translate(-19.199 -18.741)" fill="#deaf2e"/>
      <path id="Path_47615" data-name="Path 47615" d="M859.069,300.95v5.414a26.592,26.592,0,0,1-16.242,5.716c-6.851,0-12.4-2.27-16.575-6.788S820,294.734,820,287.248q0-12.182,6.965-20.521c4.633-5.581,10.308-8.329,16.971-8.329,5.57,0,10.037,1.947,13.358,5.872s5.008,9.246,5.008,15.992c0,1.156-.073,2.468-.208,3.925H825.658a32.663,32.663,0,0,0-.229,3.321,21.417,21.417,0,0,0,4.81,13.983,15.618,15.618,0,0,0,12.786,5.893C848.355,307.353,853.759,305.24,859.069,300.95Zm-32.651-21.282h30.777c.239-5.206-.9-9.225-3.353-12.161a12.494,12.494,0,0,0-10.058-4.415c-3.9,0-7.569,1.562-11.016,4.717A19.969,19.969,0,0,0,826.418,279.669Z" transform="translate(-19.199 -18.741)" fill="#deaf2e"/>
      <path id="Path_47616" data-name="Path 47616" d="M937.209,263.208v5.612q-9.152-5.726-16.794-5.726a12.775,12.775,0,0,0-7.507,2.176c-2.082,1.447-3.123,3.123-3.123,5.206a7.1,7.1,0,0,0,1.77,4.352c1.187,1.489,4.477,3.9,9.922,7.288s9.027,6.3,10.734,8.8a13.421,13.421,0,0,1,2.592,7.663c0,3.738-1.645,6.913-4.935,9.568a18.429,18.429,0,0,1-11.994,3.956c-6.247,0-12.015-2.27-17.367-6.788l1.593-5.4c4.685,4.987,10.006,7.465,16,7.465a13.16,13.16,0,0,0,8.09-2.343,7.122,7.122,0,0,0,3.207-5.9,8.548,8.548,0,0,0-1.884-5.018c-1.291-1.708-4.592-4.321-9.943-7.778s-8.777-6.247-10.3-8.5a11.452,11.452,0,0,1-2.311-6.58,11.214,11.214,0,0,1,4.718-9.143,18.4,18.4,0,0,1,11.753-3.747,29.153,29.153,0,0,1,15.774,4.841Z" transform="translate(-19.199 -18.741)" fill="#deaf2e"/>
      <path id="Path_47617" data-name="Path 47617" d="M988.778,259.387,981.49,311.07H976.45l1.447-9.162-.26-.167q-9.683,10.328-20.063,10.339a12.681,12.681,0,0,1-9-3.477,12.171,12.171,0,0,1-3.7-9.371,25.173,25.173,0,0,1,.156-2.749l5.206-37.076h5.05l-5.154,36.857a17.249,17.249,0,0,0-.115,2.02,8.881,8.881,0,0,0,2.468,6.653,9.162,9.162,0,0,0,6.747,2.436c5.883,0,12.369-4.05,19.47-12.213l5.008-35.754Z" transform="translate(-19.199 -18.741)" fill="#deaf2e"/>
      <path id="Path_47618" data-name="Path 47618" d="M1036.266,259.387l-.781,5.549a37.992,37.992,0,0,0-9.787-1.51q-11.317,0-18.043,7.715a27.247,27.247,0,0,0-6.726,18.533q0,7.965,4.758,12.838t12.64,4.841c3.644,0,8.548-1.385,14.753-4.165l-.791,5.372a34.358,34.358,0,0,1-15.232,3.55q-9.61,0-15.618-6.341t-5.956-16.659a30.975,30.975,0,0,1,8.33-21.531q8.329-9.214,22.281-9.214A52.362,52.362,0,0,1,1036.266,259.387Z" transform="translate(-19.199 -18.741)" fill="#deaf2e"/>
      <path id="Path_47619" data-name="Path 47619" d="M1080.547,259.387l-.8,5.549a37.856,37.856,0,0,0-9.777-1.51q-11.328,0-18.054,7.715a27.34,27.34,0,0,0-6.716,18.533c0,5.31,1.572,9.589,4.758,12.838s7.371,4.841,12.64,4.841q5.466,0,14.743-4.165l-.77,5.372a34.359,34.359,0,0,1-15.243,3.55q-9.589,0-15.618-6.341t-5.955-16.659a31.016,31.016,0,0,1,8.329-21.531q8.329-9.214,22.292-9.214A52.545,52.545,0,0,1,1080.547,259.387Z" transform="translate(-19.199 -18.741)" fill="#deaf2e"/>
      <path id="Path_47620" data-name="Path 47620" d="M1124.588,300.95v5.414a26.549,26.549,0,0,1-16.242,5.716c-6.83,0-12.38-2.27-16.565-6.788s-6.247-10.557-6.247-18.043q0-12.182,6.955-20.521t16.961-8.329a16.659,16.659,0,0,1,13.379,5.872c3.332,3.936,5,9.246,5,15.992,0,1.156-.073,2.468-.219,3.925h-36.441a32.239,32.239,0,0,0-.219,3.321,21.408,21.408,0,0,0,4.8,13.983,15.617,15.617,0,0,0,12.775,5.893C1113.9,307.353,1119.257,305.24,1124.588,300.95Zm-32.641-21.282h30.777q.344-7.767-3.363-12.161a12.494,12.494,0,0,0-10.058-4.415c-3.894,0-7.559,1.562-11.016,4.717A20.012,20.012,0,0,0,1091.947,279.669Z" transform="translate(-19.199 -18.741)" fill="#deaf2e"/>
      <path id="Path_47621" data-name="Path 47621" d="M1170.774,263.208v5.612q-9.173-5.726-16.8-5.726a12.754,12.754,0,0,0-7.486,2.176c-2.082,1.447-3.124,3.124-3.124,5.206a7.111,7.111,0,0,0,1.78,4.352c1.177,1.489,4.477,3.9,9.891,7.288s9.037,6.3,10.734,8.8a13.422,13.422,0,0,1,2.593,7.663,11.922,11.922,0,0,1-4.9,9.568,18.45,18.45,0,0,1-11.994,3.956q-9.371,0-17.367-6.788l1.583-5.4c4.675,4.987,10.026,7.465,16,7.465a13.181,13.181,0,0,0,8.09-2.343,7.09,7.09,0,0,0,3.207-5.9,8.465,8.465,0,0,0-1.916-5.018c-1.239-1.708-4.581-4.321-9.9-7.778s-8.787-6.247-10.328-8.5a11.454,11.454,0,0,1-2.291-6.58,11.172,11.172,0,0,1,4.706-9.141,18.47,18.47,0,0,1,11.765-3.727,29.247,29.247,0,0,1,15.763,4.821Z" transform="translate(-19.199 -18.741)" fill="#deaf2e"/>
      <path id="Path_47622" data-name="Path 47622" d="M1211.515,263.208v5.612q-9.162-5.726-16.8-5.726a12.723,12.723,0,0,0-7.5,2.176c-2.082,1.447-3.123,3.123-3.123,5.206a7.058,7.058,0,0,0,1.749,4.352c1.177,1.489,4.477,3.9,9.922,7.288s9.006,6.3,10.734,8.8a13.533,13.533,0,0,1,2.582,7.663,12,12,0,0,1-4.894,9.568,18.575,18.575,0,0,1-12.026,3.956q-9.37,0-17.356-6.788l1.572-5.4c4.706,4.987,10.026,7.465,16.013,7.465a13.233,13.233,0,0,0,8.079-2.311,7.142,7.142,0,0,0,3.207-5.9,8.663,8.663,0,0,0-1.905-5.018c-1.27-1.708-4.592-4.321-9.933-7.778s-8.756-6.247-10.3-8.5a11.452,11.452,0,0,1-2.311-6.58,11.161,11.161,0,0,1,4.727-9.142,18.387,18.387,0,0,1,11.734-3.727,29.236,29.236,0,0,1,15.826,4.789Z" transform="translate(-19.199 -18.741)" fill="#deaf2e"/>
      <path id="Path_47623" data-name="Path 47623" d="M427.525,59.118,404.609,221.769H356.226l2.978-18.21q-25.353,20.99-52.631,20.98-22.739,0-35.139-13.275t-12.442-36.191a100.8,100.8,0,0,1,.885-12.775l14.681-103.18h48.206l-12.13,86.365a137.206,137.206,0,0,0-1.562,19.064q0,24.332,14.576,24.322,18.741,0,40.814-23.78l14.68-105.97Z" transform="translate(-19.199 -18.741)" fill="#0b5daa"/>
      <path id="Path_47624" data-name="Path 47624" d="M475.762,107.47,462,203.018H413.625l13.389-95.225Z" fill="#0b5daa"/>
      <path id="Path_47625" data-name="Path 47625" d="M580.171,59.118l-2.634,18.543q27.07-21.167,55.317-21.167,21.271,0,32.63,13.16c7.538,8.767,11.349,21.073,11.349,36.878a110.375,110.375,0,0,1-1.041,14.649L661.819,221.769H613.447l13.629-96.933a50.675,50.675,0,0,0,.7-8.329q0-24.113-15.055-24.1-17.315,0-40.751,24.988L557.255,221.769h-48.4L531.934,59.118Z" transform="translate(-19.199 -18.741)" fill="#0b5daa"/>
      <path id="Path_47626" data-name="Path 47626" d="M758.617,59.118l-2.6,18.543q27.07-21.167,55.307-21.167,21.282,0,32.62,13.16t11.349,36.878a108.636,108.636,0,0,1-1.041,14.649L840.286,221.769H791.893l13.639-96.933a50.675,50.675,0,0,0,.7-8.329q0-24.113-15.055-24.1-17.325,0-40.762,24.988L735.722,221.769H687.307L710.4,59.118Z" transform="translate(-19.199 -18.741)" fill="#0b5daa"/>
      <path id="Path_47627" data-name="Path 47627" d="M965.435,56.494q35.5,0,58.066,21.229T1046.063,133q0,38.794-26.675,65.354t-65.677,26.539q-34.619,0-58.306-22.7t-23.687-55.557q0-36.857,27.622-63.511T965.435,56.494ZM954.065,185.6q18.377,0,30.09-16.836a63.637,63.637,0,0,0,11.724-37.1q0-16.055-8.923-25.9t-23.624-9.974q-19.4,0-30.527,17.377t-11.1,36.212q0,16.419,9.8,26.279t22.562,9.891Z" transform="translate(-19.199 -18.741)" fill="#0b5daa"/>
      <path id="Path_47628" data-name="Path 47628" d="M1107,156.113l39.367,47.935h53.183l-66.572-79.5Z" fill="#0b5daa"/>
      <path id="Path_47629" data-name="Path 47629" d="M1200,39.419h-53.245l-40.179,43.417,26.644,30.454Z" fill="#0b5daa"/>
      <path id="Path_47630" data-name="Path 47630" d="M1005.655,38.981h53.2l69.446,79.3-70.216,85.334h-52.433L1075.57,118.3Z" fill="#deaf2e"/>
      <path id="Path_47631" data-name="Path 47631" d="M234.263,160.5a129.709,129.709,0,0,0,8.329-46.9q0-28.768-13.119-50.351A86.323,86.323,0,0,0,193.22,30.194q-23.145-11.453-51.9-11.453A139.828,139.828,0,0,0,95.163,26.3a117.007,117.007,0,0,0-38.94,22.708A106.137,106.137,0,0,0,29.08,86.615Q19.2,109.1,19.2,137.559q0,32.828,15.618,54.141A88.5,88.5,0,0,0,74.3,222.488a131.75,131.75,0,0,0,48.56,9.475s51.725,7.424,92.727-15.618c0,0-4.946,1.229-24.343-3.124a107.564,107.564,0,0,0,18.814-15.107A109.052,109.052,0,0,0,234.263,160.5ZM87.75,170.689q-13.108-14.7-13.119-35.681a76.516,76.516,0,0,1,7.486-32.443,67.6,67.6,0,0,1,22.125-26.654q14.576-10.568,34.525-10.568a48.165,48.165,0,0,1,25.092,6.5,44.958,44.958,0,0,1,17.013,18.127q6.153,11.7,6.143,27.268a77.182,77.182,0,0,1-4.165,25.259,66.521,66.521,0,0,1-12.692,22.01A59.222,59.222,0,0,1,123.8,185.328Q100.837,185.328,87.75,170.689Z" transform="translate(-19.199 -18.741)" fill="#0b5daa"/>
      <path id="Path_47632" data-name="Path 47632" d="M159.986,214.564c-39.179,1.041-76.078-11.255-94.746-37.347,12,33.047,49.351,56.536,92.872,55.328s85.876-22.312,96.069-55.963C229.547,201.331,199.176,213.44,159.986,214.564Z" transform="translate(-19.199 -18.741)" fill="#deaf2e"/>
      <path id="Path_47633" data-name="Path 47633" d="M498.824,56.556a5.872,5.872,0,0,0-6.851,4.7l-6.1,41.334a6.122,6.122,0,0,0,12.078,1.791l6.091-41.345a5.872,5.872,0,0,0-5.216-6.476Z" transform="translate(-19.199 -18.741)" fill="#deaf2e"/>
      <path id="Path_47634" data-name="Path 47634" d="M478.407,70.185a5.862,5.862,0,0,0-6.851,4.7L465.4,116.215a6.132,6.132,0,0,0,12.088,1.791l6.091-41.345a5.872,5.872,0,0,0-5.175-6.476Z" transform="translate(-19.199 -18.741)" fill="#deaf2e"/>
      <path id="Path_47635" data-name="Path 47635" d="M462.279,56.556a5.893,5.893,0,0,0-6.851,4.7l-6.1,41.334a6.132,6.132,0,0,0,12.088,1.791l6.07-41.345A5.893,5.893,0,0,0,462.279,56.556Z" transform="translate(-19.199 -18.741)" fill="#deaf2e"/>
    </g>
  </g>
</svg>
